<?xml version="1.0" encoding="UTF-8"?>
<svg width="115px" height="64px" viewBox="0 0 115 64" version="1.1" xmlns="http://www.w3.org/2000/svg">
  <polygon fill="#008ac5" points="24.6865951 60.3400599 23.7019856 63.9990599 7.20298563 63.9990599"/>
  <polygon fill="#46c7ff" points="52.7044456 53.7316489 50.6154191 63.9996489 44.5174191 63.9996489 43.4184191 55.9217374"/>
  <polygon fill="#004868" points="61.9772874 47.1384426 64.4827434 63.9994426 63.3087434 63.9994426 57.1917434 50.5376307"/>
  <polygon fill="#004a6a" points="51.9691771 47.0864867 52.7089095 53.7372018 24.6865298 60.3430001 7.20198563 63.9962748"/>
  <polygon fill="#46c7ff" points="51.9714129 47.0861737 7.20198563 63.9962748 33.2297691 22.4603459"/>
  <polygon fill="#008ac5" points="20.1020696 35.2274337 33.2331745 22.459821 7.20198563 63.9962748"/>
  <polygon fill="#0076a9" points="3.55271368e-14 64.0023177 20.8073812 34.006681 7.20255304 64.0023177"/>
  <polygon fill="#00557a" points="51.9664225 47.0813242 75.998999 37.1676782 52.7044456 53.7329894"/>
  <polygon fill="#008ac5" points="47.7893739 24.7638395 51.9714129 47.0861737 33.2297908 22.459821"/>
  <polygon fill="#004868" points="20.8073812 4.35983089 33.2229583 22.459821 19.7494138 35.7506134"/>
  <polygon fill="#46c7ff" points="17.1044953 0 47.7950392 24.7638395 33.2252141 22.4559861"/>
  <path fill="#0076a9" d="M47.7855503,24.7638395 L69.6203737,33.9681245 L67.39801,40.7158827 L51.9665528,47.0803337 L47.7855503,24.7638395 Z M63.3302155,37.0302745 C64.0171578,37.0302745 64.5740348,36.4733976 64.5740348,35.7864552 C64.5740348,35.0995129 64.0171578,34.542636 63.3302155,34.542636 C62.6432728,34.542636 62.0863963,35.0995129 62.0863963,35.7864552 C62.0863963,36.4733976 62.6432728,37.0302745 63.3302155,37.0302745 Z"/>
  <polygon fill="#46c7ff" points="69.6203867 33.9788781 114.884289 21.450368 67.3967522 40.7159911"/>
</svg>